HIERARCHY
ROOT Hips
{
	OFFSET 0.00000 0.00000 0.00000
	CHANNELS 6 Xposition Yposition Zposition Zrotation Yrotation Xrotation 
	JOINT LHipJoint
	{
		OFFSET 0 0 0
		CHANNELS 3 Zrotation Yrotation Xrotation
		JOINT LeftUpLeg
		{
			OFFSET 1.84395 -1.68683 0.74144
			CHANNELS 3 Zrotation Yrotation Xrotation
			JOINT LeftLeg
			{
				OFFSET 2.27037 -6.23779 0.00000
				CHANNELS 3 Zrotation Yrotation Xrotation
				JOINT LeftFoot
				{
					OFFSET 2.56918 -7.05877 0.00000
					CHANNELS 3 Zrotation Yrotation Xrotation
					JOINT LeftToeBase
					{
						OFFSET 0.22276 -0.61202 1.71784
						CHANNELS 3 Zrotation Yrotation Xrotation
						End Site
						{
							OFFSET 0.00000 -0.00000 0.91613
						}
					}
				}
			}
		}
	}
	JOINT RHipJoint
	{
		OFFSET 0 0 0
		CHANNELS 3 Zrotation Yrotation Xrotation
		JOINT RightUpLeg
		{
			OFFSET -1.76833 -1.68684 0.74144
			CHANNELS 3 Zrotation Yrotation Xrotation
			JOINT RightLeg
			{
				OFFSET -2.49360 -6.85110 0.00000
				CHANNELS 3 Zrotation Yrotation Xrotation
				JOINT RightFoot
				{
					OFFSET -2.55538 -7.02085 0.00000
					CHANNELS 3 Zrotation Yrotation Xrotation
					JOINT RightToeBase
					{
						OFFSET -0.21516 -0.59115 1.68050
						CHANNELS 3 Zrotation Yrotation Xrotation
						End Site
						{
							OFFSET -0.00000 -0.00000 0.89604
						}
					}
				}
			}
		}
	}
	JOINT LowerBack
	{
		OFFSET 0 0 0
		CHANNELS 3 Zrotation Yrotation Xrotation
		JOINT Spine
		{
			OFFSET 0.06382 1.72312 -0.19613
			CHANNELS 3 Zrotation Yrotation Xrotation
			JOINT Spine1
			{
				OFFSET -0.00055 1.73507 0.23859
				CHANNELS 3 Zrotation Yrotation Xrotation
				JOINT Neck
				{
					OFFSET 0 0 0
					CHANNELS 3 Zrotation Yrotation Xrotation
					JOINT Neck1
					{
						OFFSET 0.03638 1.65562 0.09633
						CHANNELS 3 Zrotation Yrotation Xrotation
						JOINT Head
						{
							OFFSET 0.06388 1.62807 -0.32386
							CHANNELS 3 Zrotation Yrotation Xrotation
							End Site
							{
								OFFSET 0.00995 1.67644 -0.12021
							}
						}
					}
				}
				JOINT LeftShoulder
				{
					OFFSET 0 0 0
					CHANNELS 3 Zrotation Yrotation Xrotation
					JOINT LeftArm
					{
						OFFSET 3.09648 1.42991 0.28122
						CHANNELS 3 Zrotation Yrotation Xrotation
						JOINT LeftForeArm
						{
							OFFSET 5.11878 -0.00000 -0.00000
							CHANNELS 3 Zrotation Yrotation Xrotation
							JOINT LeftHand
							{
								OFFSET 3.59971 -0.00000 0.00000
								CHANNELS 3 Zrotation Yrotation Xrotation
								JOINT LeftFingerBase
								{
									OFFSET 0 0 0
									CHANNELS 3 Zrotation Yrotation Xrotation
									JOINT LeftHandIndex1
									{
										OFFSET 0.62877 -0.00000 0.00000
										CHANNELS 3 Zrotation Yrotation Xrotation
										End Site
										{
											OFFSET 0.50693 -0.00000 0.00000
										}
									}
								}
								JOINT LThumb
								{
									OFFSET 0 0 0
									CHANNELS 3 Zrotation Yrotation Xrotation
									End Site
									{
										OFFSET 0.51467 -0.00000 0.51467
									}
								}
							}
						}
					}
				}
				JOINT RightShoulder
				{
					OFFSET 0 0 0
					CHANNELS 3 Zrotation Yrotation Xrotation
					JOINT RightArm
					{
						OFFSET -3.33565 1.14597 0.05047
						CHANNELS 3 Zrotation Yrotation Xrotation
						JOINT RightForeArm
						{
							OFFSET -5.49020 -0.00000 0.00000
							CHANNELS 3 Zrotation Yrotation Xrotation
							JOINT RightHand
							{
								OFFSET -3.20659 -0.00000 -0.00000
								CHANNELS 3 Zrotation Yrotation Xrotation
								JOINT RightFingerBase
								{
									OFFSET 0 0 0
									CHANNELS 3 Zrotation Yrotation Xrotation
									JOINT RightHandIndex1
									{
										OFFSET -0.69188 -0.00000 0.00000
										CHANNELS 3 Zrotation Yrotation Xrotation
										End Site
										{
											OFFSET -0.55781 -0.00000 0.00000
										}
									}
								}
								JOINT RThumb
								{
									OFFSET 0 0 0
									CHANNELS 3 Zrotation Yrotation Xrotation
									End Site
									{
										OFFSET -0.56633 -0.00000 0.56633
									}
								}
							}
						}
					}
				}
			}
		}
	}
}
MOTION
Frames: 11
Frame Time: .0083333
0.2285 17.4695 8.3708 0 0 0 0 0 0 -21 0 0 0 0 0 0 0 0 0 0 0 0 0 0 21 0 0 0 0 0 0 0 0 0 0 0 0 0 0 0 0 0 0 0 0 0 0 -16 0 0 21 0 0 11 0 0 0 -8 0 0 0 0 0 0 0 0 0 0 0 0 0 0 0 0 0 0 0 0 8 0 0 0 0 0 0 0 0 0 0 0 0 0 0 0 0 0
0.2285 17.4695 8.3708 -8.4455 -3.5056 9.4336 0.0000 0.0000 0.0000 -19.2746 -39.1705 23.6646 0.0732 -1.7458 -4.8036 -5.2027 44.5899 -47.3157 1.1234 6.7324 18.9251 0.0000 0.0000 0.0000 25.2522 27.5678 7.0655 -0.0118 -0.7003 1.9244 0.8956 -20.4130 -20.5645 -0.0081 0.5802 -1.5942 6.1534 1.8137 -1.3314 0.4118 2.7387 -10.1562 -3.1786 0.8407 -9.7947 0.1572 -7.0636 -3.2720 11.1593 -12.4417 22.6872 2.6450 -4.9750 8.3021 -0.0000 0.0000 0.0000 -89.8840 12.4377 1.9127 14.0357 -22.7858 -2.8419 -0.0000 -0.0000 6.1793 -17.9336 -4.2440 1.3720 -7.1250 0.0000 -0.0000 -31.8000 24.8305 18.3999 -0.0000 0.0000 0.0000 94.5686 -12.5858 -0.4755 -14.3886 23.2875 -2.9800 0.0000 0.0000 39.9293 11.8916 -34.0263 -6.7205 7.1250 -0.0000 -0.0000 48.4138 -57.1925 -17.1307
0.2298 17.4689 8.3714 -8.4789 -3.4922 9.4069 0.0000 0.0000 0.0000 -19.2944 -39.1744 23.7484 0.0738 -1.7526 -4.8223 -5.2233 44.6134 -47.2980 1.1162 6.7117 18.8641 0.0000 0.0000 0.0000 25.3062 27.5372 7.1203 -0.0112 -0.6848 1.8820 0.8880 -20.3880 -20.6055 -0.0079 0.5756 -1.5818 6.1228 1.6074 -1.3400 0.6979 2.4773 -10.0949 -2.8383 0.7315 -9.7594 -0.5216 -6.9923 -3.3660 11.0144 -12.2532 22.7636 2.7204 -4.9485 8.3580 -0.0000 0.0000 0.0000 -90.5463 12.5922 1.8787 13.7081 -22.3159 -2.7163 -0.0000 -0.0000 8.9101 -13.0323 -7.0046 1.6168 -7.1250 0.0000 -0.0000 -28.0894 22.6945 17.1984 -0.0000 0.0000 0.0000 94.0576 -12.4955 0.2238 -14.3779 23.2723 -2.9758 0.0000 0.0000 39.9444 12.1355 -34.0520 -6.8656 7.1250 -0.0000 -0.0000 48.6547 -57.1575 -17.2031
0.2299 17.4693 8.3693 -8.5409 -3.4946 9.4109 0.0000 0.0000 0.0000 -19.1910 -39.1506 23.7165 0.0743 -1.7580 -4.8374 -5.1833 44.5667 -47.3304 1.1326 6.7591 19.0035 0.0000 0.0000 0.0000 25.3739 27.5663 7.0989 -0.0117 -0.6970 1.9154 0.8824 -20.3704 -20.6358 -0.0050 0.4565 -1.2542 6.0874 1.4039 -1.3251 1.0016 2.2236 -10.0556 -2.4782 0.6257 -9.7604 -1.2040 -6.9179 -3.4388 10.8606 -12.0537 22.8387 2.7961 -4.9193 8.4084 0.0000 0.0000 0.0000 -91.2103 12.7573 1.8675 13.3971 -21.8662 -2.5993 -0.0000 -0.0000 11.6686 -7.9661 -9.4473 1.3158 -7.1250 0.0000 -0.0000 -24.3681 20.6599 15.6609 0.0000 0.0000 0.0000 93.5262 -12.3826 0.9253 -14.3522 23.2360 -2.9656 0.0000 0.0000 39.9571 12.2086 -34.0556 -6.9085 7.1250 -0.0000 -0.0000 48.7222 -57.1441 -17.2189
0.2306 17.4696 8.3675 -8.5326 -3.5009 9.4256 0.0000 0.0000 0.0000 -19.1338 -39.0983 23.6133 0.0739 -1.7533 -4.8243 -5.1956 44.5415 -47.2312 1.1364 6.7701 19.0362 0.0000 0.0000 0.0000 25.3398 27.5597 7.0435 -0.0120 -0.7065 1.9417 0.8780 -20.3423 -20.6300 -0.0051 0.4610 -1.2668 5.9853 1.1942 -1.3389 1.2903 1.9555 -10.0223 -2.0954 0.5180 -9.7495 -1.8581 -6.8212 -3.4928 10.6712 -11.8160 22.9255 2.8606 -4.8735 8.4522 0.0000 0.0000 0.0000 -91.8965 12.9171 1.8201 13.0808 -21.4054 -2.4827 -0.0000 -0.0000 14.6394 -2.4708 -11.4129 0.4892 -7.1250 0.0000 -0.0000 -20.4742 18.8815 13.6424 0.0000 0.0000 0.0000 92.9775 -12.3027 1.7183 -14.3666 23.2564 -2.9713 0.0000 0.0000 39.8555 12.2038 -34.0806 -6.9101 7.1250 -0.0000 -0.0000 48.7449 -57.1629 -17.2534
0.2282 17.4728 8.3690 -8.1459 -3.5989 9.5128 0.0000 0.0000 0.0000 -19.5993 -39.2897 23.5774 0.0712 -1.7218 -4.7374 -5.1099 44.5554 -47.5562 1.1652 6.8523 19.2785 0.0000 0.0000 0.0000 24.8250 27.7070 6.9613 -0.0114 -0.6900 1.8961 0.8847 -20.4025 -20.6770 -0.0013 0.2344 -0.6440 5.4062 0.9844 -1.5165 1.4955 1.6483 -9.9929 -1.5316 0.4293 -9.6455 -2.5084 -6.7247 -3.5929 10.4732 -11.5812 23.0583 2.9202 -4.8265 8.5196 0.0000 0.0000 0.0000 -92.5577 13.2176 2.5105 12.9120 -21.1581 -2.4214 -0.0000 -0.0000 17.0118 3.6856 -11.9675 -0.7653 -7.1250 0.0000 -0.0000 -16.2903 18.2427 10.8181 0.0000 0.0000 0.0000 92.3441 -12.1044 2.6715 -14.2275 23.0591 -2.9166 0.0000 0.0000 39.6238 11.8706 -34.0859 -6.7186 7.1250 -0.0000 -0.0000 48.4586 -57.2394 -17.2104
0.2219 17.4800 8.3935 -7.8566 -3.4895 9.8475 0.0000 0.0000 0.0000 -19.8662 -39.6591 23.4073 0.0696 -1.7020 -4.6828 -5.0310 44.5632 -47.8401 1.1772 6.8865 19.3795 0.0000 0.0000 0.0000 24.3925 27.7875 6.8170 -0.0086 -0.5986 1.6449 0.9183 -20.6044 -20.7010 -0.0013 -0.2362 0.6490 4.7818 0.5192 -2.3293 2.0372 0.9770 -9.9486 -0.5590 0.1881 -9.1678 -3.6473 -6.4036 -3.7625 10.2526 -10.9786 23.3152 3.0893 -4.6440 8.6363 0.0000 -0.0000 0.0000 -93.8204 13.9345 3.9828 12.7161 -20.8699 -2.3512 -0.0000 -0.0000 20.9679 14.5790 -11.3062 -2.9190 -7.1250 0.0000 -0.0000 -8.8013 18.3854 5.6430 0.0000 -0.0000 0.0000 91.0387 -11.7112 4.4670 -13.8271 22.4871 -2.7616 0.0000 0.0000 39.2755 11.1410 -33.9436 -6.2753 7.1250 -0.0000 -0.0000 47.6660 -57.2974 -16.9017
0.2183 17.4832 8.4016 -7.6180 -3.4930 9.9848 0.0000 0.0000 0.0000 -20.1496 -39.8801 23.3773 0.0681 -1.6836 -4.6319 -4.9367 44.5532 -48.1330 1.2049 6.9642 19.6093 0.0000 0.0000 0.0000 24.0717 27.9002 6.7593 -0.0076 -0.5647 1.5517 0.9340 -20.7131 -20.7446 -0.0067 -0.5303 1.4572 4.4857 0.4928 -2.6623 2.0022 0.9071 -9.9300 -0.4261 0.1799 -8.9526 -3.8505 -6.4967 -3.8067 10.1104 -11.0614 23.3791 3.0648 -4.7098 8.6758 -0.0000 -0.0000 0.0000 -93.7886 14.0403 4.6072 12.8556 -21.0753 -2.4011 -0.0000 -0.0000 20.1711 14.7252 -11.0100 -2.8734 -7.1250 0.0000 -0.0000 -8.7037 18.6780 5.5219 -0.0000 -0.0000 0.0000 90.9224 -11.4996 4.6566 -13.6523 22.2354 -2.6951 0.0000 0.0000 39.1256 10.7488 -33.8052 -6.0291 7.1250 -0.0000 -0.0000 47.1738 -57.2837 -16.6517
0.2184 17.4821 8.3995 -7.5595 -3.5002 9.9935 0.0000 0.0000 0.0000 -20.1906 -39.8804 23.3443 0.0683 -1.6861 -4.6389 -5.0022 44.6080 -48.0347 1.1944 6.9346 19.5218 0.0000 0.0000 0.0000 24.0058 27.9856 6.7765 -0.0076 -0.5641 1.5500 0.9294 -20.7343 -20.8475 -0.0106 -0.6645 1.8260 4.4378 0.4832 -2.6723 2.0008 0.8917 -9.9197 -0.4003 0.1765 -8.9357 -4.0670 -6.6152 -3.8973 9.9091 -11.1687 23.4847 3.0181 -4.7908 8.7377 0.0000 -0.0000 0.0000 -93.8371 14.0435 4.6972 12.9560 -21.2227 -2.4373 -0.0000 -0.0000 20.1824 14.5769 -10.2958 -2.6611 -7.1250 0.0000 -0.0000 -8.8222 19.4142 5.4527 0.0000 -0.0000 0.0000 90.8675 -11.4473 4.7562 -13.6623 22.2498 -2.6989 0.0000 0.0000 39.0434 10.7292 -33.7443 -6.0084 7.1250 -0.0000 -0.0000 47.0926 -57.2442 -16.5659
0.2184 17.4813 8.3990 -7.5251 -3.4981 10.0025 0.0000 0.0000 0.0000 -20.1620 -39.8120 23.2486 0.0682 -1.6854 -4.6370 -5.0857 44.6284 -47.8002 1.1720 6.8715 19.3354 0.0000 0.0000 0.0000 23.9691 28.0325 6.7906 -0.0075 -0.5595 1.5374 0.9353 -20.7773 -20.8684 -0.0124 -0.7195 1.9772 4.4244 0.5047 -2.7093 1.9723 0.9156 -9.9093 -0.4241 0.1888 -8.9008 -4.2100 -6.7486 -3.9514 9.6916 -11.2972 23.5578 2.9525 -4.8793 8.7785 0.0000 -0.0000 0.0000 -93.8183 14.0567 4.8928 13.0513 -21.3623 -2.4719 -0.0000 -0.0000 20.1627 14.3850 -9.6266 -2.4559 -7.1250 0.0000 -0.0000 -8.9752 20.1060 5.4090 0.0000 -0.0000 0.0000 90.8738 -11.4158 4.7677 -13.6830 22.2798 -2.7068 0.0000 0.0000 38.9770 10.6522 -33.6531 -5.9505 7.1250 -0.0000 -0.0000 46.9293 -57.1951 -16.4305
0.2193 17.4812 8.3999 -7.5157 -3.4999 10.0092 0.0000 0.0000 0.0000 -20.1699 -39.7934 23.2296 0.0680 -1.6824 -4.6287 -5.0307 44.5617 -47.8380 1.1883 6.9176 19.4716 0.0000 0.0000 0.0000 23.9407 27.9838 6.7541 -0.0076 -0.5616 1.5432 0.9350 -20.7470 -20.8060 -0.0106 -0.6640 1.8246 4.4571 0.5596 -2.7693 1.9091 0.9819 -9.9012 -0.5121 0.2169 -8.8523 -4.2933 -6.8998 -3.9098 9.5061 -11.4621 23.5946 2.8874 -4.9816 8.7906 0.0000 0.0000 0.0000 -93.6806 14.0503 5.0003 13.0145 -21.3084 -2.4585 -0.0000 -0.0000 20.0816 14.3652 -10.3509 -2.6347 -7.1250 0.0000 -0.0000 -8.9706 19.3702 5.5556 0.0000 0.0000 0.0000 90.9699 -11.4021 4.6544 -13.7130 22.3229 -2.7181 0.0000 0.0000 38.9098 10.5224 -33.6317 -5.8736 7.1250 -0.0000 -0.0000 46.7921 -57.2079 -16.3817
